<svg id="SocialMedia" xmlns="http://www.w3.org/2000/svg" viewBox="0 0 44.17 44.17"><defs><style>.cls-1{fill:#c93e3e;fill-rule:evenodd;}</style></defs><g id="behance"><path class="cls-1" d="M22.09,0A22.09,22.09,0,1,0,44.17,22.09,22.09,22.09,0,0,0,22.09,0ZM31.6,17.18H25.36V15.39H31.6Zm-.55,1.5a6.21,6.21,0,0,0-2.53-.5,5.24,5.24,0,0,0-3.85,1.48,5.69,5.69,0,0,0-1.48,4.23,5.1,5.1,0,0,0,1.64,4.25,5.92,5.92,0,0,0,3.79,1.31,5.27,5.27,0,0,0,4.05-1.55,3.5,3.5,0,0,0,1-1.92H30.84a2.31,2.31,0,0,1-.58.73,2.37,2.37,0,0,1-1.56.49,2.93,2.93,0,0,1-1.55-.4A2.55,2.55,0,0,1,26,24.56h7.84a12.31,12.31,0,0,0-.09-2.11,5.21,5.21,0,0,0-.86-2.2A4.4,4.4,0,0,0,31.05,18.68Zm-13.71-4a4.54,4.54,0,0,1,3.78,1.53,3.7,3.7,0,0,1,.66,2.2,3.16,3.16,0,0,1-.67,2.11,3.48,3.48,0,0,1-1.11.82,3.27,3.27,0,0,1,1.68,1.27,3.72,3.72,0,0,1,.57,2.1A4.17,4.17,0,0,1,21.6,27a4,4,0,0,1-1,1.13,4.05,4.05,0,0,1-1.65.72,10.11,10.11,0,0,1-2.05.2H10.31V14.72Z"/><path class="cls-1" d="M13.21,17.22h3.17a5.53,5.53,0,0,1,1.72.22,1.3,1.3,0,0,1,.78,1.33A1.36,1.36,0,0,1,18.29,20a3,3,0,0,1-1.54.36H13.21Zm13.63,3.86a2.28,2.28,0,0,1,1.68-.61,2.46,2.46,0,0,1,1.67.58,2.29,2.29,0,0,1,.75,1.68H26.09A2.85,2.85,0,0,1,26.84,21.08Zm-10,1.68H13.21v3.83h3.53a3.46,3.46,0,0,0,1.48-.25,1.8,1.8,0,0,0,1-1.79A1.54,1.54,0,0,0,18.25,23,3.73,3.73,0,0,0,16.79,22.76Z"/></g></svg>