<svg id="SocialMedia" xmlns="http://www.w3.org/2000/svg" viewBox="0 0 44.17 44.17"><defs><style>.cls-1,.cls-2{fill:#c93e3e;}.cls-1{fill-rule:evenodd;}</style></defs><g id="instagram"><path class="cls-1" d="M22.09,0A22.09,22.09,0,1,0,44.17,22.09,22.09,22.09,0,0,0,22.09,0ZM17.23,10.38c1.26-.06,1.66-.07,4.86-.07h0c3.2,0,3.6,0,4.86.07a8.52,8.52,0,0,1,2.86.55,5.81,5.81,0,0,1,2.09,1.35,5.93,5.93,0,0,1,1.36,2.09,8.54,8.54,0,0,1,.54,2.86c.06,1.26.08,1.66.08,4.86s0,3.6-.08,4.85a8.49,8.49,0,0,1-.54,2.86,6,6,0,0,1-3.45,3.45,8.49,8.49,0,0,1-2.86.54c-1.25.06-1.65.08-4.85.08s-3.6,0-4.86-.08a8.54,8.54,0,0,1-2.86-.54,5.93,5.93,0,0,1-2.09-1.36,5.81,5.81,0,0,1-1.35-2.09,8.46,8.46,0,0,1-.55-2.86c-.06-1.25-.07-1.65-.07-4.85s0-3.6.07-4.86a8.27,8.27,0,0,1,.55-2.86,6,6,0,0,1,3.44-3.44A8.52,8.52,0,0,1,17.23,10.38Z"/><path class="cls-1" d="M21,12.43h1.06c3.14,0,3.51,0,4.76.07a6.44,6.44,0,0,1,2.18.4,3.76,3.76,0,0,1,1.36.88,3.71,3.71,0,0,1,.88,1.36,6.7,6.7,0,0,1,.41,2.19c.05,1.24.06,1.61.06,4.75s0,3.52-.06,4.76A6.77,6.77,0,0,1,31.27,29a3.59,3.59,0,0,1-.88,1.35,3.63,3.63,0,0,1-1.36.88,6.37,6.37,0,0,1-2.18.41c-1.24.06-1.62.07-4.76.07s-3.52,0-4.76-.07a6.5,6.5,0,0,1-2.19-.41A4,4,0,0,1,12.9,29a6.57,6.57,0,0,1-.4-2.19c-.06-1.24-.07-1.61-.07-4.76s0-3.52.07-4.76a6.44,6.44,0,0,1,.4-2.18,3.65,3.65,0,0,1,.89-1.36,3.59,3.59,0,0,1,1.35-.88,6.7,6.7,0,0,1,2.19-.41c1.08-.05,1.51-.06,3.7-.06Zm7.35,2a1.41,1.41,0,1,0,1.41,1.41,1.42,1.42,0,0,0-1.41-1.41ZM16,22.09a6.05,6.05,0,1,1,6.05,6A6.05,6.05,0,0,1,16,22.09Z"/><path class="cls-2" d="M22.09,18.16a3.93,3.93,0,1,1-3.93,3.93A3.92,3.92,0,0,1,22.09,18.16Z"/></g></svg>