<svg id="SocialMedia" xmlns="http://www.w3.org/2000/svg" viewBox="0 0 44.17 44.17"><defs><style>.cls-1{fill:#c93e3e;fill-rule:evenodd;}</style></defs><path id="linkedin" class="cls-1" d="M22.09,0A22.09,22.09,0,1,0,44.17,22.09,22.09,22.09,0,0,0,22.09,0ZM10.6,18.29h5v15h-5Zm5.34-4.65a2.61,2.61,0,0,0-2.8-2.6,2.61,2.61,0,0,0-2.83,2.6,2.59,2.59,0,0,0,2.76,2.6h0A2.61,2.61,0,0,0,15.94,13.64Zm12,4.3c3.29,0,5.76,2.15,5.76,6.77v8.62h-5v-8c0-2-.72-3.4-2.53-3.4a2.75,2.75,0,0,0-2.57,1.82,3.51,3.51,0,0,0-.16,1.22v8.4h-5s.06-13.63,0-15h5v2.13A5,5,0,0,1,27.9,17.94Z"/></svg>